<?xml version="1.0" standalone="no"?>
<!DOCTYPE svg PUBLIC "-//W3C//DTD SVG 20010904//EN"
 "http://www.w3.org/TR/2001/REC-SVG-20010904/DTD/svg10.dtd">
<svg version="1.0" xmlns="http://www.w3.org/2000/svg"
 width="512.000000pt" height="512.000000pt" viewBox="0 0 512.000000 512.000000"
 preserveAspectRatio="xMidYMid meet">
<metadata>
Created by potrace 1.11, written by Peter Selinger 2001-2013
</metadata>
<g transform="translate(0.000000,512.000000) scale(0.100000,-0.100000)"
fill="#000000" stroke="none">
<path d="M2135 3228 l-1661 -1663 -109 -648 c-59 -356 -105 -650 -102 -654 4
-3 298 43 655 102 l647 109 1663 1661 1662 1660 -548 548 -547 547 -1660
-1662z m445 -493 l-1505 -1505 -145 145 -145 145 1505 1505 1505 1505 145
-145 145 -145 -1505 -1505z m1808 1202 l142 -142 -1505 -1505 -1505 -1505
-147 148 -148 147 1500 1500 c825 825 1505 1500 1510 1500 6 0 74 -64 153
-143z m-3081 -3243 c-1 -1 -113 -21 -249 -44 l-247 -42 -101 93 c-55 51 -100
100 -100 109 0 8 18 120 40 249 22 129 40 240 40 245 0 6 139 -128 310 -299
170 -170 308 -310 307 -311z"/>
</g>
</svg>
